<?xml version="1.0" standalone="no"?>
<!DOCTYPE svg PUBLIC "-//W3C//DTD SVG 20010904//EN"
 "http://www.w3.org/TR/2001/REC-SVG-20010904/DTD/svg10.dtd">
<svg version="1.0" xmlns="http://www.w3.org/2000/svg"
 width="1080.000000pt" height="1080.000000pt" viewBox="0 0 1080.000000 1080.000000"
 preserveAspectRatio="xMidYMid meet">

<g transform="translate(0.000000,1080.000000) scale(0.100000,-0.100000)"
fill="#000000" stroke="none">
<path d="M2015 7488 c169 -173 276 -331 389 -576 122 -266 226 -675 226 -886
0 -182 -40 -551 -91 -856 -108 -634 -342 -1360 -615 -1902 -19 -37 -34 -70
-34 -73 0 -3 486 -5 1080 -5 l1080 0 0 1105 0 1105 213 0 214 0 6 -767 c4
-421 7 -919 7 -1105 l0 -338 910 0 910 0 0 1105 0 1105 220 0 220 0 0 -1105 0
-1105 1080 0 c594 0 1080 2 1080 5 0 3 -24 63 -54 133 -375 891 -601 1894
-642 2852 -6 151 -6 158 24 275 80 313 202 589 362 817 35 51 119 148 185 216
l121 122 -3506 0 -3506 0 121 -122z"/>
</g>
</svg>
